<svg xmlns="http://www.w3.org/2000/svg" width="1100" height="620" viewBox="0 0 1100 620">
<rect width="100%" height="100%" fill="#0f172a"/>
<defs><marker id="arrow" markerWidth="10" markerHeight="10" refX="8" refY="3" orient="auto"><path d="M0,0 L0,6 L9,3 z" fill="#94a3b8"/></marker></defs>
<text x="40" y="55" fill="#e5e7eb" font-size="28" font-family="Arial" font-weight="700">Incident Response Timeline</text>
<rect x="50" y="150" width="170" height="70" rx="14" fill="#1e293b" stroke="#38bdf8" stroke-width="2"/><text x="66" y="184" fill="#f8fafc" font-size="18" font-family="Arial" font-weight="700">Preparation</text><rect x="250" y="150" width="170" height="70" rx="14" fill="#1e293b" stroke="#38bdf8" stroke-width="2"/><text x="266" y="184" fill="#f8fafc" font-size="18" font-family="Arial" font-weight="700">Identification</text><rect x="450" y="150" width="170" height="70" rx="14" fill="#1e293b" stroke="#38bdf8" stroke-width="2"/><text x="466" y="184" fill="#f8fafc" font-size="18" font-family="Arial" font-weight="700">Triage</text><rect x="650" y="150" width="170" height="70" rx="14" fill="#1e293b" stroke="#38bdf8" stroke-width="2"/><text x="666" y="184" fill="#f8fafc" font-size="18" font-family="Arial" font-weight="700">Containment</text><rect x="850" y="150" width="170" height="70" rx="14" fill="#1e293b" stroke="#38bdf8" stroke-width="2"/><text x="866" y="184" fill="#f8fafc" font-size="18" font-family="Arial" font-weight="700">Recovery</text><rect x="160" y="330" width="220" height="80" rx="14" fill="#1e293b" stroke="#38bdf8" stroke-width="2"/><text x="176" y="364" fill="#f8fafc" font-size="18" font-family="Arial" font-weight="700">Evidence index</text><rect x="440" y="330" width="220" height="80" rx="14" fill="#1e293b" stroke="#38bdf8" stroke-width="2"/><text x="456" y="364" fill="#f8fafc" font-size="18" font-family="Arial" font-weight="700">Timeline</text><rect x="720" y="330" width="220" height="80" rx="14" fill="#1e293b" stroke="#38bdf8" stroke-width="2"/><text x="736" y="364" fill="#f8fafc" font-size="18" font-family="Arial" font-weight="700">Final report</text><rect x="260" y="500" width="580" height="70" rx="14" fill="#172554" stroke="#60a5fa" stroke-width="2"/><text x="276" y="534" fill="#f8fafc" font-size="18" font-family="Arial" font-weight="700">Synthetic/local data unless authorized</text><line x1="220" y1="185" x2="250" y2="185" stroke="#94a3b8" stroke-width="2" marker-end="url(#arrow)"/><line x1="420" y1="185" x2="450" y2="185" stroke="#94a3b8" stroke-width="2" marker-end="url(#arrow)"/><line x1="620" y1="185" x2="650" y2="185" stroke="#94a3b8" stroke-width="2" marker-end="url(#arrow)"/><line x1="820" y1="185" x2="850" y2="185" stroke="#94a3b8" stroke-width="2" marker-end="url(#arrow)"/><line x1="535" y1="220" x2="270" y2="330" stroke="#94a3b8" stroke-width="2" marker-end="url(#arrow)"/><text x="410" y="267" fill="#bae6fd" font-size="13" font-family="Arial">collect</text><line x1="535" y1="220" x2="550" y2="330" stroke="#94a3b8" stroke-width="2" marker-end="url(#arrow)"/><text x="550" y="267" fill="#bae6fd" font-size="13" font-family="Arial">order</text><line x1="735" y1="220" x2="830" y2="330" stroke="#94a3b8" stroke-width="2" marker-end="url(#arrow)"/><text x="790" y="267" fill="#bae6fd" font-size="13" font-family="Arial">summarize</text></svg>